<svg width="34" height="25" viewBox="0 0 34 25" fill="none" xmlns="http://www.w3.org/2000/svg">
<path d="M11.4368 2.44755C10.4024 3.35082 9.42721 4.26865 8.51108 5.20105C7.62451 6.10431 6.84137 7.05128 6.16167 8.04196C5.48196 9.03263 4.93525 10.0524 4.52151 11.1014C4.13733 12.1503 3.94524 13.2576 3.94524 14.4231C3.94524 14.831 3.96002 15.1952 3.98957 15.5157C4.04867 15.8362 4.10778 16.2005 4.16688 16.6084L4.38853 16.5647C4.89092 15.574 5.55585 14.8456 6.38331 14.3794C7.21078 13.9132 8.0678 13.6801 8.95437 13.6801C9.63407 13.6801 10.299 13.8112 10.9492 14.0734C11.6289 14.3357 12.2199 14.7145 12.7223 15.2098C13.2542 15.7051 13.6827 16.317 14.0078 17.0455C14.3329 17.7448 14.4954 18.546 14.4954 19.4493C14.4954 20.2069 14.3625 20.9353 14.0965 21.6346C13.8305 22.3048 13.4463 22.8875 12.9439 23.3829C12.4415 23.8782 11.8209 24.2716 11.0821 24.5629C10.3729 24.8543 9.54541 25 8.59974 25C7.47675 25 6.39809 24.796 5.36375 24.3881C4.32942 23.951 3.4133 23.3246 2.61538 22.5087C1.81747 21.6929 1.18209 20.6876 0.709257 19.493C0.236419 18.2984 0 16.9289 0 15.3846C0 12.7331 0.753585 10.1253 2.26076 7.56119C3.79748 4.96795 6.08779 2.44755 9.13168 0C9.63407 0.320513 10.0626 0.684732 10.4172 1.09266C10.8014 1.50058 11.1412 1.95221 11.4368 2.44755ZM30.9413 2.44755C29.907 3.35082 28.9318 4.26865 28.0156 5.20105C27.1291 6.10431 26.3459 7.05128 25.6662 8.04196C24.9865 9.03263 24.4398 10.0524 24.0261 11.1014C23.6419 12.1503 23.4498 13.2576 23.4498 14.4231C23.4498 14.831 23.4646 15.1952 23.4941 15.5157C23.5532 15.8362 23.6123 16.2005 23.6714 16.6084L23.8931 16.5647C24.3955 15.574 25.0604 14.8456 25.8879 14.3794C26.7153 13.9132 27.5724 13.6801 28.4589 13.6801C29.1386 13.6801 29.8036 13.8112 30.4537 14.0734C31.1334 14.3357 31.7245 14.7145 32.2269 15.2098C32.7588 15.7051 33.1873 16.317 33.5124 17.0455C33.8375 17.7448 34 18.546 34 19.4493C34 20.2069 33.867 20.9353 33.601 21.6346C33.3351 22.3048 32.9509 22.8875 32.4485 23.3829C31.9461 23.8782 31.3255 24.2716 30.5867 24.5629C29.8774 24.8543 29.05 25 28.1043 25C26.9813 25 25.9027 24.796 24.8683 24.3881C23.834 23.951 22.9179 23.3246 22.1199 22.5087C21.322 21.6929 20.6867 20.6876 20.2138 19.493C19.741 18.2984 19.5046 16.9289 19.5046 15.3846C19.5046 12.7331 20.2581 10.1253 21.7653 7.56119C23.302 4.96795 25.5924 2.44755 28.6362 0C29.1386 0.320513 29.5671 0.684732 29.9218 1.09266C30.306 1.50058 30.6458 1.95221 30.9413 2.44755Z" fill="#C4B99D"/>
</svg>
