<svg width="32" height="32" viewBox="0 0 32 32" fill="none" xmlns="http://www.w3.org/2000/svg">
<path id="Vector" fill-rule="evenodd" clip-rule="evenodd" d="M15.2921 0.293755C15.385 0.200639 15.4953 0.126761 15.6168 0.076354C15.7382 0.0259467 15.8685 0 16 0C16.1315 0 16.2617 0.0259467 16.3832 0.076354C16.5047 0.126761 16.615 0.200639 16.7079 0.293755L20.7075 4.29331C20.8004 4.38627 20.8742 4.49664 20.9245 4.6181C20.9748 4.73957 21.0007 4.86976 21.0007 5.00123C21.0007 5.1327 20.9748 5.26289 20.9245 5.38435C20.8742 5.50582 20.8004 5.61618 20.7075 5.70915C20.6145 5.80212 20.5041 5.87586 20.3827 5.92617C20.2612 5.97648 20.131 6.00238 19.9996 6.00238C19.8681 6.00238 19.7379 5.97648 19.6164 5.92617C19.495 5.87586 19.3846 5.80212 19.2916 5.70915L16.9999 3.41541V11.0006C16.9999 11.2657 16.8945 11.5201 16.707 11.7076C16.5195 11.8951 16.2652 12.0004 16 12.0004C15.7348 12.0004 15.4805 11.8951 15.293 11.7076C15.1055 11.5201 15.0001 11.2657 15.0001 11.0006V3.41541L12.7084 5.70915C12.5206 5.8969 12.266 6.00238 12.0004 6.00238C11.7349 6.00238 11.4803 5.8969 11.2925 5.70915C11.1048 5.5214 10.9993 5.26675 10.9993 5.00123C10.9993 4.73571 11.1048 4.48106 11.2925 4.29331L15.2921 0.293755ZM16 19.9996C16.2652 19.9996 16.5195 20.1049 16.707 20.2924C16.8945 20.4799 16.9999 20.7343 16.9999 20.9994V28.5846L19.2916 26.2908C19.4794 26.1031 19.734 25.9976 19.9996 25.9976C20.2651 25.9976 20.5197 26.1031 20.7075 26.2908C20.8952 26.4786 21.0007 26.7332 21.0007 26.9988C21.0007 27.2643 20.8952 27.5189 20.7075 27.7067L16.7079 31.7062C16.615 31.7994 16.5047 31.8732 16.3832 31.9236C16.2617 31.9741 16.1315 32 16 32C15.8685 32 15.7382 31.9741 15.6168 31.9236C15.4953 31.8732 15.385 31.7994 15.2921 31.7062L11.2925 27.7067C11.1996 27.6137 11.1258 27.5034 11.0755 27.3819C11.0252 27.2604 10.9993 27.1302 10.9993 26.9988C10.9993 26.8673 11.0252 26.7371 11.0755 26.6156C11.1258 26.4942 11.1996 26.3838 11.2925 26.2908C11.4803 26.1031 11.7349 25.9976 12.0004 25.9976C12.1319 25.9976 12.2621 26.0235 12.3836 26.0738C12.505 26.1241 12.6154 26.1979 12.7084 26.2908L15.0001 28.5846V20.9994C15.0001 20.7343 15.1055 20.4799 15.293 20.2924C15.4805 20.1049 15.7348 19.9996 16 19.9996ZM0.293755 16.7079C0.200639 16.615 0.126761 16.5047 0.076354 16.3832C0.0259467 16.2617 0 16.1315 0 16C0 15.8685 0.0259467 15.7382 0.076354 15.6168C0.126761 15.4953 0.200639 15.385 0.293755 15.2921L4.29331 11.2925C4.48106 11.1048 4.73571 10.9993 5.00123 10.9993C5.26675 10.9993 5.5214 11.1048 5.70915 11.2925C5.8969 11.4803 6.00238 11.7349 6.00238 12.0004C6.00238 12.266 5.8969 12.5206 5.70915 12.7084L3.41541 15.0001H11.0006C11.2657 15.0001 11.5201 15.1055 11.7076 15.293C11.8951 15.4805 12.0004 15.7348 12.0004 16C12.0004 16.2652 11.8951 16.5195 11.7076 16.707C11.5201 16.8945 11.2657 16.9999 11.0006 16.9999H3.41541L5.70915 19.2916C5.8969 19.4794 6.00238 19.734 6.00238 19.9996C6.00238 20.2651 5.8969 20.5197 5.70915 20.7075C5.5214 20.8952 5.26675 21.0007 5.00123 21.0007C4.73571 21.0007 4.48106 20.8952 4.29331 20.7075L0.293755 16.7079ZM19.9996 16C19.9996 15.7348 20.1049 15.4805 20.2924 15.293C20.4799 15.1055 20.7343 15.0001 20.9994 15.0001H28.5846L26.2908 12.7084C26.1979 12.6154 26.1241 12.505 26.0738 12.3836C26.0235 12.2621 25.9976 12.1319 25.9976 12.0004C25.9976 11.869 26.0235 11.7388 26.0738 11.6173C26.1241 11.4959 26.1979 11.3855 26.2908 11.2925C26.4786 11.1048 26.7332 10.9993 26.9988 10.9993C27.1302 10.9993 27.2604 11.0252 27.3819 11.0755C27.5034 11.1258 27.6137 11.1996 27.7067 11.2925L31.7062 15.2921C31.7994 15.385 31.8732 15.4953 31.9236 15.6168C31.9741 15.7382 32 15.8685 32 16C32 16.1315 31.9741 16.2617 31.9236 16.3832C31.8732 16.5047 31.7994 16.615 31.7062 16.7079L27.7067 20.7075C27.6137 20.8004 27.5034 20.8742 27.3819 20.9245C27.2604 20.9748 27.1302 21.0007 26.9988 21.0007C26.8673 21.0007 26.7371 20.9748 26.6156 20.9245C26.4942 20.8742 26.3838 20.8004 26.2908 20.7075C26.1979 20.6145 26.1241 20.5041 26.0738 20.3827C26.0235 20.2612 25.9976 20.131 25.9976 19.9996C25.9976 19.8681 26.0235 19.7379 26.0738 19.6164C26.1241 19.495 26.1979 19.3846 26.2908 19.2916L28.5846 16.9999H20.9994C20.7343 16.9999 20.4799 16.8945 20.2924 16.707C20.1049 16.5195 19.9996 16.2652 19.9996 16Z" fill="#C4B99D"/>
</svg>
